<?xml version="1.0" encoding="UTF-8"?>
<svg xmlns="http://www.w3.org/2000/svg" viewBox="0 0 206.88 45.09">
  <defs>
    <style>.cls-1{fill:#fff;}</style>
  </defs>
  <g id="Base">
    <g>
      <path class="cls-1" d="m2.14,39.62h4.38v.61h-3.77v1.72h3.62v.6h-3.62v1.88h3.8v.61H2.14v-5.41Z"></path>
      <path class="cls-1" d="m7.48,39.62h.59v4.04c0,.12.02.25.05.36.02.1.05.19.13.26.07.07.16.12.28.17.14.03.3.05.51.05h2.09c.19,0,.36-.02.49-.05.14-.05.24-.09.3-.17.07-.07.12-.15.14-.26.02-.1.05-.23.05-.36v-4.04h.61v4.04c0,.28-.05.5-.09.68-.08.18-.17.33-.29.45-.12.1-.3.18-.5.23-.19.05-.44.06-.74.06h-2.04c-.29,0-.52-.02-.73-.06-.19-.05-.36-.13-.49-.23-.13-.12-.21-.27-.29-.45-.06-.18-.07-.4-.07-.68v-4.04Z"></path>
      <path class="cls-1" d="m13.86,39.62h3.57c.33,0,.57.03.78.11.18.06.35.16.45.3.1.11.16.28.22.46.02.2.03.42.03.68v.43c0,.2-.02.35-.06.48-.03.13-.08.23-.16.31-.08.08-.17.14-.26.17-.1.03-.21.06-.31.08h0c.15.05.27.09.38.16.1.05.18.14.24.23.06.1.09.18.1.29.03.1.04.21.04.35v1.38h-.56v-1.19c0-.2-.03-.38-.06-.5-.05-.13-.09-.22-.19-.28-.07-.08-.17-.11-.28-.13-.1-.03-.23-.03-.35-.03h-2.96v2.14h-.6v-5.41Zm3.5,2.68c.34,0,.57-.06.73-.18.15-.12.22-.33.22-.62v-.48c0-.15-.01-.28-.05-.37-.02-.1-.08-.19-.16-.25-.11-.07-.21-.11-.35-.13-.15-.03-.33-.05-.54-.05h-2.75v2.07h2.9Z"></path>
      <path class="cls-1" d="m19.84,41.6c0-.35.03-.64.1-.89.05-.26.13-.46.25-.64.12-.16.29-.29.49-.37.21-.08.46-.12.76-.12h2.58c.29,0,.55.04.75.12.21.08.38.2.49.37.12.18.22.38.28.64.05.25.07.54.07.89v1.47c0,.34-.03.64-.07.89-.06.25-.16.46-.28.63-.11.17-.28.29-.49.38-.19.08-.46.12-.75.12h-2.58c-.31,0-.55-.04-.76-.12-.19-.09-.36-.21-.49-.38-.12-.17-.2-.38-.25-.63-.06-.25-.1-.55-.1-.89v-1.47Zm5.16-.28c0-.24-.03-.41-.08-.57-.07-.14-.14-.27-.24-.34-.08-.1-.18-.16-.33-.18-.12-.04-.26-.05-.41-.05h-2.44c-.14,0-.3,0-.41.05-.14.03-.24.09-.34.18-.1.07-.17.2-.21.34-.06.16-.09.34-.09.57v2.03c0,.24.03.42.09.57.04.15.11.27.21.35.1.08.2.15.34.18.11.03.27.05.41.05h2.44c.15,0,.28-.02.41-.05.15-.03.25-.1.33-.18.1-.08.17-.2.24-.35.06-.15.08-.33.08-.57v-2.03Z"></path>
      <path class="cls-1" d="m26.67,39.62h3.67c.21,0,.38.03.54.06.18.05.31.11.41.21.12.11.19.26.25.45.05.2.09.45.09.76,0,.29,0,.56-.04.79-.02.22-.08.42-.17.56-.1.16-.24.26-.42.36-.19.07-.44.1-.77.1h-2.97v2.13h-.59v-5.41Zm4.34,1.4c0-.15,0-.29-.04-.39-.04-.1-.09-.19-.17-.24-.06-.07-.14-.1-.25-.12-.09-.03-.21-.04-.35-.04h-2.94v2.08h2.98c.25,0,.43-.06.57-.18.16-.11.2-.31.2-.59v-.51Z"></path>
      <path class="cls-1" d="m32.46,39.62h4.37v.61h-3.77v1.72h3.63v.6h-3.63v1.88h3.82v.61h-4.42v-5.41Z"></path>
      <path class="cls-1" d="m39.95,39.62h.75l2.64,5.41h-.67l-.57-1.14h-3.57l-.55,1.14h-.7l2.68-5.41Zm.36.61l-1.49,3.05h2.98l-1.49-3.05Z"></path>
      <path class="cls-1" d="m43.98,39.62h.91l4.08,4.75v-4.75h.61v5.41h-.9l-4.09-4.74v4.74h-.61v-5.41Z"></path>
      <path class="cls-1" d="m57.79,41.6c0-.35.02-.64.06-.89.07-.26.14-.46.27-.64.11-.16.28-.29.48-.37.2-.08.47-.12.78-.12h2.32c.25,0,.49.03.66.1.19.09.34.17.42.29.12.13.2.27.25.43.03.16.06.33.06.52v.46h-.53v-.25c0-.22-.02-.41-.09-.53-.04-.13-.12-.22-.22-.29-.09-.06-.19-.09-.33-.12-.11-.02-.25-.02-.39-.02h-2.1c-.12,0-.27,0-.4.05-.12.03-.25.09-.34.18-.09.07-.16.2-.21.34-.07.16-.09.34-.09.57v2.03c0,.24.02.42.09.57.06.15.13.27.21.35.1.08.22.15.34.18.13.03.27.05.4.05h2.11c.2,0,.38-.02.52-.05.13-.03.24-.08.32-.16.08-.07.15-.16.18-.28.03-.12.04-.27.04-.46v-.34h.58v.38c0,.23-.02.45-.05.64-.05.19-.12.35-.24.48-.11.13-.26.22-.46.28-.2.07-.47.1-.76.1h-2.28c-.31,0-.57-.04-.78-.12-.19-.09-.36-.21-.48-.38-.13-.17-.2-.38-.27-.63-.05-.25-.06-.55-.06-.89v-1.47Z"></path>
      <path class="cls-1" d="m64.69,41.6c0-.35,0-.64.05-.89.07-.26.16-.46.27-.64.12-.16.28-.29.48-.37.2-.08.47-.12.77-.12h2.55c.3,0,.55.04.78.12.18.08.36.2.48.37.12.18.21.38.27.64.05.25.09.54.09.89v1.47c0,.34-.04.64-.09.89-.06.25-.15.46-.27.63-.12.17-.29.29-.48.38-.22.08-.47.12-.78.12h-2.55c-.31,0-.57-.04-.77-.12-.2-.09-.37-.21-.48-.38-.11-.17-.2-.38-.27-.63-.04-.25-.05-.55-.05-.89v-1.47Zm5.15-.28c0-.24-.06-.41-.1-.57-.06-.14-.12-.27-.22-.34-.09-.1-.21-.16-.33-.18-.14-.04-.26-.05-.41-.05h-2.45c-.13,0-.28,0-.42.05-.11.03-.21.09-.32.18-.09.07-.18.2-.22.34-.07.16-.09.34-.09.57v2.03c0,.24.02.42.09.57.03.15.13.27.22.35.11.08.22.15.32.18.14.03.29.05.42.05h2.45c.15,0,.27-.02.41-.05.12-.03.25-.1.33-.18.1-.08.16-.2.22-.35.05-.15.1-.33.1-.57v-2.03Z"></path>
      <path class="cls-1" d="m72.12,39.62h.89l4.08,4.75v-4.75h.61v5.41h-.88l-4.08-4.74v4.74h-.61v-5.41Z"></path>
      <path class="cls-1" d="m81.27,40.23h-2.25v-.61h5.12v.61h-2.27v4.8h-.6v-4.8Z"></path>
      <path class="cls-1" d="m85.44,39.62h3.58c.31,0,.56.03.76.11.2.06.34.16.44.3.11.11.19.28.23.46.04.2.05.42.05.68v.43c0,.2-.02.35-.07.48-.03.13-.11.23-.17.31-.08.08-.16.14-.25.17-.12.03-.23.06-.34.08h0c.16.05.29.09.39.16.1.05.16.14.23.23.04.1.1.18.12.29.02.1.03.21.03.35v1.38h-.58v-1.19c0-.2-.02-.38-.07-.5-.03-.13-.09-.22-.16-.28-.08-.08-.19-.11-.29-.13-.11-.03-.24-.03-.37-.03h-2.95v2.14h-.6v-5.41Zm3.5,2.68c.34,0,.58-.06.73-.18.13-.12.21-.33.21-.62v-.48c0-.15,0-.28-.06-.37-.02-.1-.06-.19-.16-.25-.08-.07-.2-.11-.34-.13-.14-.03-.31-.05-.56-.05h-2.74v2.07h2.9Z"></path>
      <path class="cls-1" d="m92.1,41.6c0-.35.03-.64.08-.89.06-.26.13-.46.25-.64.12-.16.3-.29.49-.37.22-.08.46-.12.78-.12h2.56c.31,0,.55.04.75.12.21.08.38.2.51.37.11.18.2.38.27.64.04.25.07.54.07.89v1.47c0,.34-.02.64-.07.89-.07.25-.16.46-.27.63-.12.17-.3.29-.51.38-.19.08-.44.12-.75.12h-2.56c-.32,0-.57-.04-.78-.12-.19-.09-.37-.21-.49-.38-.12-.17-.2-.38-.25-.63-.04-.25-.08-.55-.08-.89v-1.47Zm5.14-.28c0-.24-.02-.41-.06-.57-.06-.14-.14-.27-.22-.34-.11-.1-.22-.16-.34-.18-.13-.04-.27-.05-.41-.05h-2.43c-.15,0-.3,0-.42.05-.12.03-.25.09-.34.18-.09.07-.16.2-.21.34-.06.16-.09.34-.09.57v2.03c0,.24.03.42.09.57.06.15.12.27.21.35.09.08.22.15.34.18.12.03.27.05.42.05h2.43c.14,0,.28-.02.41-.05.12-.03.23-.1.34-.18.08-.08.16-.2.22-.35.04-.15.06-.33.06-.57v-2.03Z"></path>
      <path class="cls-1" d="m99.59,39.62h.58v4.8h3.48v.61h-4.05v-5.41Z"></path>
      <path class="cls-1" d="m111.89,41.6c0-.35.03-.64.1-.89.04-.26.12-.46.24-.64.12-.16.29-.29.5-.37.21-.08.45-.12.76-.12h2.31c.28,0,.51.03.69.1.17.09.32.17.43.29.11.13.17.27.22.43.04.16.07.33.07.52v.46h-.54v-.25c0-.22-.02-.41-.07-.53-.06-.13-.14-.22-.24-.29-.08-.06-.18-.09-.31-.12-.13-.02-.26-.02-.38-.02h-2.09c-.16,0-.28,0-.42.05-.13.03-.25.09-.35.18-.08.07-.16.2-.22.34-.04.16-.07.34-.07.57v2.03c0,.24.03.42.07.57.06.15.14.27.22.35.1.08.21.15.35.18.14.03.26.05.42.05h2.1c.2,0,.37-.02.5-.05.14-.03.24-.08.32-.16.1-.07.14-.16.16-.28.05-.12.06-.27.06-.46v-.34h.56v.38c0,.23-.02.45-.06.64-.04.19-.11.35-.22.48-.13.13-.27.22-.48.28-.2.07-.44.1-.75.1h-2.28c-.31,0-.55-.04-.76-.12-.21-.09-.38-.21-.5-.38-.11-.17-.2-.38-.24-.63-.06-.25-.1-.55-.1-.89v-1.47Z"></path>
      <path class="cls-1" d="m118.13,41.6c0-.35.02-.64.06-.89.06-.26.15-.46.29-.64.11-.16.27-.29.48-.37.2-.08.46-.12.78-.12h2.55c.31,0,.55.04.76.12.2.08.36.2.48.37.12.18.2.38.26.64.06.25.1.54.1.89v1.47c0,.34-.04.64-.1.89-.06.25-.15.46-.26.63-.12.17-.28.29-.48.38-.21.08-.46.12-.76.12h-2.55c-.32,0-.58-.04-.78-.12-.2-.09-.36-.21-.48-.38-.13-.17-.23-.38-.29-.63-.04-.25-.06-.55-.06-.89v-1.47Zm5.15-.28c0-.24-.03-.41-.09-.57-.05-.14-.11-.27-.21-.34-.1-.1-.2-.16-.34-.18-.12-.04-.26-.05-.41-.05h-2.45c-.13,0-.27,0-.41.05-.12.03-.24.09-.34.18-.09.07-.15.2-.21.34-.07.16-.1.34-.1.57v2.03c0,.24.03.42.1.57.06.15.12.27.21.35.1.08.22.15.34.18.13.03.27.05.41.05h2.45c.15,0,.28-.02.41-.05.14-.03.24-.1.34-.18.1-.08.16-.2.21-.35.07-.15.09-.33.09-.57v-2.03Z"></path>
      <path class="cls-1" d="m124.91,39.62h.9l4.09,4.75v-4.75h.61v5.41h-.9l-4.09-4.74v4.74h-.61v-5.41Z"></path>
      <path class="cls-1" d="m131.66,39.62h4.25v.61h-3.65v1.72h3.51v.6h-3.51v2.49h-.6v-5.41Z"></path>
      <path class="cls-1" d="m136.81,39.62h4.37v.61h-3.77v1.72h3.63v.6h-3.63v1.88h3.82v.61h-4.42v-5.41Z"></path>
      <path class="cls-1" d="m142.11,39.62h3.56c.32,0,.6.03.79.11.2.06.35.16.45.3.09.11.17.28.2.46.06.2.07.42.07.68v.43c0,.2-.04.35-.08.48-.06.13-.1.23-.17.31-.07.08-.15.14-.26.17-.1.03-.2.06-.33.08h0c.15.05.28.09.39.16.1.05.18.14.24.23.04.1.08.18.11.29.03.1.03.21.03.35v1.38h-.55v-1.19c0-.2-.03-.38-.07-.5-.04-.13-.09-.22-.17-.28-.07-.08-.16-.11-.28-.13-.1-.03-.24-.03-.38-.03h-2.95v2.14h-.59v-5.41Zm3.5,2.68c.33,0,.57-.06.73-.18.15-.12.22-.33.22-.62v-.48c0-.15,0-.28-.04-.37-.02-.1-.08-.19-.17-.25-.07-.07-.19-.11-.35-.13-.12-.03-.31-.05-.53-.05h-2.76v2.07h2.91Z"></path>
      <path class="cls-1" d="m148.23,39.62h4.38v.61h-3.77v1.72h3.61v.6h-3.61v1.88h3.81v.61h-4.42v-5.41Z"></path>
      <path class="cls-1" d="m153.53,39.62h.89l4.09,4.75v-4.75h.61v5.41h-.91l-4.09-4.74v4.74h-.59v-5.41Z"></path>
      <path class="cls-1" d="m160.15,41.6c0-.35.03-.64.06-.89.06-.26.16-.46.28-.64.11-.16.28-.29.49-.37.19-.08.45-.12.75-.12h2.32c.29,0,.52.03.69.1.16.09.33.17.43.29.1.13.18.27.22.43.03.16.06.33.06.52v.46h-.54v-.25c0-.22-.02-.41-.07-.53-.06-.13-.14-.22-.22-.29-.11-.06-.21-.09-.34-.12-.11-.02-.25-.02-.38-.02h-2.08c-.16,0-.3,0-.42.05-.12.03-.22.09-.33.18-.09.07-.17.2-.24.34-.06.16-.07.34-.07.57v2.03c0,.24,0,.42.07.57.07.15.15.27.24.35.1.08.2.15.33.18.12.03.26.05.42.05h2.09c.22,0,.38-.02.51-.05.14-.03.25-.08.33-.16.08-.07.13-.16.14-.28.04-.12.07-.27.07-.46v-.34h.57v.38c0,.23-.01.45-.06.64-.06.19-.11.35-.23.48-.1.13-.27.22-.46.28-.19.07-.45.1-.77.1h-2.28c-.29,0-.55-.04-.75-.12-.21-.09-.38-.21-.49-.38-.13-.17-.22-.38-.28-.63-.03-.25-.06-.55-.06-.89v-1.47Z"></path>
      <path class="cls-1" d="m166.51,39.62h4.38v.61h-3.79v1.72h3.64v.6h-3.64v1.88h3.81v.61h-4.39v-5.41Z"></path>
    </g>
  </g>
  <g id="_24">
    <g>
      <path class="cls-1" d="m0,12.86c0-2.87.37-5.16,1.14-6.87.76-1.71,1.75-3,2.97-3.9,1.22-.89,2.6-1.47,4.12-1.72,1.54-.25,3.1-.38,4.68-.38h7.13c2,0,3.84.18,5.52.56,1.66.38,3.11,1.08,4.31,2.09,1.2,1.03,2.15,2.43,2.85,4.22.68,1.79,1.02,4.1,1.02,6.92v3.56H4.45v2c0,1.83.18,3.33.57,4.5.38,1.16.99,2.09,1.84,2.78.85.68,1.94,1.16,3.31,1.43,1.36.28,3,.41,4.94.41h6.11c1.37,0,2.56-.07,3.57-.22,1-.14,1.81-.43,2.48-.84.65-.41,1.15-1,1.47-1.74.33-.76.53-1.73.6-2.94h4.44v.62c0,1.83-.3,3.35-.89,4.56-.61,1.21-1.49,2.18-2.63,2.91-1.17.73-2.56,1.25-4.19,1.56-1.64.31-3.51.47-5.57.47h-8.07c-1.46,0-2.92-.12-4.39-.38-1.49-.25-2.83-.83-4-1.74-1.2-.92-2.17-2.23-2.9-3.94-.75-1.71-1.11-4.04-1.11-7v-6.94Zm29.32-1.99c0-.79-.15-1.59-.44-2.38-.28-.79-.78-1.49-1.47-2.09-.69-.6-1.64-1.09-2.84-1.47-1.21-.37-2.7-.56-4.51-.56h-6.51c-1.76,0-3.22.12-4.34.34-1.14.23-2.04.65-2.73,1.28-.66.62-1.15,1.5-1.44,2.63-.29,1.12-.49,2.58-.59,4.37h24.87v-2.12Z"></path>
      <path class="cls-1" d="m37.85,12.86c0-2.87.38-5.16,1.16-6.87.78-1.71,1.78-3,3.03-3.9,1.24-.89,2.65-1.47,4.25-1.72,1.58-.25,3.19-.38,4.79-.38h7.45c4.14,0,7.1.95,8.86,2.87,1.78,1.92,2.66,4.56,2.66,7.94v.87h-4.13v-.75c0-1.33-.17-2.43-.51-3.28-.35-.85-.84-1.52-1.48-1.99-.64-.47-1.41-.81-2.31-1-.91-.18-1.94-.28-3.03-.28h-8.17c-1.03,0-2.05.08-3.03.25-.98.16-1.85.53-2.6,1.13-.77.58-1.37,1.44-1.81,2.58-.46,1.15-.68,2.72-.68,4.71v6.69c0,1.79.23,3.25.65,4.37.43,1.12,1.04,2.01,1.84,2.65.78.65,1.72,1.1,2.83,1.34,1.12.26,2.33.38,3.68.38h7.5c1.02,0,2-.1,2.92-.31.9-.21,1.72-.57,2.42-1.09.7-.53,1.26-1.21,1.66-2.07.39-.85.59-1.92.59-3.22v-1.05h4.14v.93c0,2-.22,3.71-.66,5.13-.42,1.41-1.1,2.57-2.03,3.47-.93.9-2.13,1.55-3.6,1.96-1.46.42-3.23.63-5.29.63h-10.04c-.99,0-2.13-.12-3.41-.38-1.27-.25-2.48-.82-3.61-1.72-1.14-.9-2.1-2.2-2.88-3.91-.78-1.71-1.16-3.99-1.16-6.87v-7.12Z"></path>
      <path class="cls-1" d="m74.45,12.86c0-2.87.39-5.16,1.17-6.87.78-1.71,1.79-3,3.03-3.9,1.24-.89,2.65-1.47,4.23-1.72,1.59-.25,3.2-.38,4.83-.38h7.44c4.14,0,7.08.95,8.86,2.87,1.79,1.92,2.67,4.56,2.67,7.94v.87h-4.14v-.75c0-1.33-.18-2.43-.51-3.28-.34-.85-.84-1.52-1.48-1.99-.64-.47-1.42-.81-2.33-1-.9-.18-1.92-.28-3.02-.28h-8.16c-1.04,0-2.05.08-3.03.25-.98.16-1.85.53-2.61,1.13-.76.58-1.36,1.44-1.81,2.58-.45,1.15-.67,2.72-.67,4.71v6.69c0,1.79.21,3.25.64,4.37.44,1.12,1.05,2.01,1.84,2.65.79.65,1.74,1.1,2.84,1.34,1.11.26,2.33.38,3.67.38h7.49c1.05,0,2.01-.1,2.93-.31.91-.21,1.71-.57,2.43-1.09.69-.53,1.25-1.21,1.64-2.07.39-.85.6-1.92.6-3.22v-1.05h4.14v.93c0,2-.21,3.71-.65,5.13-.43,1.41-1.11,2.57-2.04,3.47-.92.9-2.12,1.55-3.59,1.96-1.47.42-3.23.63-5.3.63h-10.03c-1,0-2.13-.12-3.4-.38-1.28-.25-2.49-.82-3.63-1.72-1.14-.9-2.1-2.2-2.87-3.91-.78-1.71-1.17-3.99-1.17-6.87v-7.12Z"></path>
    </g>
    <g>
      <path class="cls-1" d="m113.41,5.72h5.86v5.86h-5.86v-5.86Zm5.86,7.03v5.86h-5.86l5.86-5.86Zm-5.86,7.03h5.86v5.86h-5.86v-5.86Zm0,7.03h5.86v5.86l-5.86-5.86Zm7.04-21.1h5.86v5.86h-5.86v-5.86Zm0,7.03h5.86v5.86h-5.86v-5.86Zm0,14.07h5.86v5.86h-5.86v-5.86Zm7.03-21.1h5.86v5.86h-5.86v-5.86Zm0,7.03h5.86v5.86h-5.86v-5.86Zm0,14.07h5.86v5.86h-5.86v-5.86Zm7.04-21.1l5.86,5.86h-5.86v-5.86Zm0,7.03h5.86l-5.86,5.86v-5.86Zm0,14.07h5.86v5.86h-5.86v-5.86Z"></path>
      <path class="cls-1" d="m143.9,5.72h5.86v5.86h-5.86v-5.86Zm0,7.03h5.86v5.86h-5.86v-5.86Zm0,7.03h5.86v5.86l-5.86-5.86Zm7.04,0h5.86v5.86h-5.86v-5.86Zm7.03,0h5.86v5.86h-5.86v-5.86Zm7.04-14.07h5.86v5.86h-5.86v-5.86Zm0,7.03h5.86v5.86h-5.86v-5.86Zm0,7.03h5.86v5.86h-5.86v-5.86Zm0,7.03h5.86v5.86h-5.86v-5.86Z"></path>
    </g>
  </g>
</svg>
